M48
; DRILL file KiCad 10.0.6 date 2026-09-13T10:32:27
; FORMAT={-:-/ absolute / metric / decimal}
; #@! TF.CreationDate,2026-09-13T10:32:27+02:00
; #@! TF.GenerationSoftware,Kicad,Pcbnew,10.0.6
; #@! TF.FileFunction,Plated,1,4,PTH
FMAT,2
METRIC
; #@! TA.AperFunction,Plated,PTH,ComponentDrill
T1C0.700
; #@! TA.AperFunction,Plated,PTH,ComponentDrill
T2C1.000
%
G90
G05
T1
X42.25Y-45.93
X42.25Y-69.19
X42.25Y-104.42
X42.25Y-127.68
X45.25Y-45.93
X45.25Y-69.19
X45.25Y-104.42
X45.25Y-127.68
T2
X44.04Y-74.71
X44.04Y-77.25
X44.04Y-79.79
X44.04Y-82.33
X44.04Y-84.87
X44.04Y-87.41
X44.04Y-89.95
X44.04Y-92.49
X44.04Y-95.03
X44.04Y-97.57
X46.58Y-74.71
X46.58Y-77.25
X46.58Y-79.79
X46.58Y-82.33
X46.58Y-84.87
X46.58Y-87.41
X46.58Y-89.95
X46.58Y-92.49
X46.58Y-95.03
X46.58Y-97.57
X53.5Y-84.21
X53.5Y-86.75
X53.5Y-89.29
X56.04Y-84.21
X56.04Y-86.75
X56.04Y-89.29
X59.35Y-65.13
X59.35Y-67.67
X61.89Y-65.13
X61.89Y-67.67
X64.43Y-65.13
X64.43Y-67.67
X66.97Y-65.13
X66.97Y-67.67
X69.51Y-65.13
X69.51Y-67.67
X70.0Y-130.05
X72.05Y-65.13
X72.05Y-67.67
X74.0Y-130.05
X74.59Y-65.13
X74.59Y-67.67
X77.13Y-65.13
X77.13Y-67.67
X79.67Y-65.13
X79.67Y-67.67
X81.0Y-130.05
X81.0Y-132.59
X82.21Y-65.13
X82.21Y-67.67
X84.75Y-65.13
X84.75Y-67.67
X87.29Y-65.13
X87.29Y-67.67
X89.83Y-65.13
X89.83Y-67.67
X92.37Y-65.13
X92.37Y-67.67
X94.91Y-65.13
X94.91Y-67.67
X96.0Y-94.55
X96.0Y-97.09
X96.0Y-99.63
X96.0Y-102.17
X96.0Y-104.71
X96.87Y-47.2
X97.45Y-65.13
X97.45Y-67.67
X98.23Y-78.97
X98.23Y-81.51
X98.23Y-84.05
X98.23Y-86.59
X98.23Y-89.13
X98.54Y-94.55
X98.54Y-97.09
X98.54Y-99.63
X98.54Y-102.17
X98.54Y-104.71
X99.99Y-65.13
X99.99Y-67.67
X100.77Y-78.97
X100.77Y-81.51
X100.77Y-84.05
X100.77Y-86.59
X100.77Y-89.13
X102.53Y-65.13
X102.53Y-67.67
M30
