M48
; DRILL file KiCad 10.0.6 date 2026-09-13T10:11:51
; FORMAT={-:-/ absolute / metric / decimal}
; #@! TF.CreationDate,2026-09-13T10:11:51+02:00
; #@! TF.GenerationSoftware,Kicad,Pcbnew,10.0.6
; #@! TF.FileFunction,Plated,1,4,PTH
FMAT,2
METRIC
; #@! TA.AperFunction,Plated,PTH,ComponentDrill
T1C0.700
; #@! TA.AperFunction,Plated,PTH,ComponentDrill
T2C1.000
%
G90
G05
T1
X42.25Y-45.93
X42.25Y-69.19
X42.25Y-104.49
X42.25Y-127.75
X45.25Y-45.93
X45.25Y-69.19
X45.25Y-104.49
X45.25Y-127.75
T2
X44.04Y-74.78
X44.04Y-77.32
X44.04Y-79.86
X44.04Y-82.4
X44.04Y-84.94
X44.04Y-87.48
X44.04Y-90.02
X44.04Y-92.56
X44.04Y-95.1
X44.04Y-97.64
X46.58Y-74.78
X46.58Y-77.32
X46.58Y-79.86
X46.58Y-82.4
X46.58Y-84.94
X46.58Y-87.48
X46.58Y-90.02
X46.58Y-92.56
X46.58Y-95.1
X46.58Y-97.64
X53.5Y-84.28
X53.5Y-86.82
X53.5Y-89.36
X56.04Y-84.28
X56.04Y-86.82
X56.04Y-89.36
X59.35Y-65.13
X59.35Y-67.67
X61.89Y-65.13
X61.89Y-67.67
X64.43Y-65.13
X64.43Y-67.67
X66.97Y-65.13
X66.97Y-67.67
X69.51Y-65.13
X69.51Y-67.67
X70.0Y-130.12
X72.05Y-65.13
X72.05Y-67.67
X74.0Y-130.12
X74.59Y-65.13
X74.59Y-67.67
X77.13Y-65.13
X77.13Y-67.67
X79.67Y-65.13
X79.67Y-67.67
X81.0Y-130.12
X81.0Y-132.66
X82.21Y-65.13
X82.21Y-67.67
X84.75Y-65.13
X84.75Y-67.67
X87.29Y-65.13
X87.29Y-67.67
X89.83Y-65.13
X89.83Y-67.67
X92.37Y-65.13
X92.37Y-67.67
X94.91Y-65.13
X94.91Y-67.67
X96.0Y-94.62
X96.0Y-97.16
X96.0Y-99.7
X96.0Y-102.24
X96.0Y-104.78
X96.87Y-47.2
X97.45Y-65.13
X97.45Y-67.67
X98.23Y-79.04
X98.23Y-81.58
X98.23Y-84.12
X98.23Y-86.66
X98.23Y-89.2
X98.54Y-94.62
X98.54Y-97.16
X98.54Y-99.7
X98.54Y-102.24
X98.54Y-104.78
X99.99Y-65.13
X99.99Y-67.67
X100.77Y-79.04
X100.77Y-81.58
X100.77Y-84.12
X100.77Y-86.66
X100.77Y-89.2
X102.53Y-65.13
X102.53Y-67.67
M30
