M48
; DRILL file KiCad 10.0.6 date 2026-09-13T03:07:25
; FORMAT={-:-/ absolute / metric / decimal}
; #@! TF.CreationDate,2026-09-13T03:07:25+02:00
; #@! TF.GenerationSoftware,Kicad,Pcbnew,10.0.6
; #@! TF.FileFunction,Plated,1,4,PTH
FMAT,2
METRIC
; #@! TA.AperFunction,Plated,PTH,ComponentDrill
T1C0.700
; #@! TA.AperFunction,Plated,PTH,ComponentDrill
T2C1.000
%
G90
G05
T1
X42.25Y-74.37
X42.25Y-97.63
X45.25Y-74.37
X45.25Y-97.63
T2
X44.04Y-44.66
X44.04Y-47.2
X44.04Y-49.74
X44.04Y-52.28
X44.04Y-54.82
X44.04Y-57.36
X44.04Y-59.9
X44.04Y-62.44
X44.04Y-64.98
X44.04Y-67.52
X46.58Y-44.66
X46.58Y-47.2
X46.58Y-49.74
X46.58Y-52.28
X46.58Y-54.82
X46.58Y-57.36
X46.58Y-59.9
X46.58Y-62.44
X46.58Y-64.98
X46.58Y-67.52
X53.5Y-54.16
X53.5Y-56.7
X53.5Y-59.24
X56.04Y-54.16
X56.04Y-56.7
X56.04Y-59.24
X70.0Y-100.0
X74.0Y-100.0
X81.0Y-100.0
X81.0Y-102.54
X96.0Y-64.5
X96.0Y-67.04
X96.0Y-69.58
X96.0Y-72.12
X96.0Y-74.66
X98.23Y-48.92
X98.23Y-51.46
X98.23Y-54.0
X98.23Y-56.54
X98.23Y-59.08
X98.54Y-64.5
X98.54Y-67.04
X98.54Y-69.58
X98.54Y-72.12
X98.54Y-74.66
X100.77Y-48.92
X100.77Y-51.46
X100.77Y-54.0
X100.77Y-56.54
X100.77Y-59.08
M30
